HIERARCHY
ROOT hip
{
	OFFSET 0.000000 0.000000 0.000000 
	CHANNELS 6 Xposition Yposition Zposition Xrotation Zrotation Yrotation
	JOINT abdomen
	{
		OFFSET 0.000000 3.402643 0.000000 
		CHANNELS 3 Xrotation Zrotation Yrotation
		JOINT chest
		{
			OFFSET 0.000000 8.438565 -0.680529 
			CHANNELS 3 Xrotation Zrotation Yrotation
			JOINT neck
			{
				OFFSET 0.000000 10.207942 -0.272212 
				CHANNELS 3 Xrotation Zrotation Yrotation
				JOINT head
				{
					OFFSET 0.000000 3.130431 0.000000 
					CHANNELS 3 Xrotation Zrotation Yrotation
					End Site
					{
						OFFSET 0.000000 3.130435 0.000000 
					}
				}
			}
			JOINT lCollar
			{
				OFFSET 3.470700 6.669187 -0.816635 
				CHANNELS 3 Yrotation Zrotation Xrotation
				JOINT lShldr
				{
					OFFSET 3.198488 0.000000 0.000000 
					CHANNELS 3 Zrotation Yrotation Xrotation
					JOINT lForeArm
					{
						OFFSET 10.139888 0.000000 0.000000 
						CHANNELS 3 Yrotation Zrotation Xrotation
						JOINT lHand
						{
							OFFSET 8.370511 0.000000 0.000000 
							CHANNELS 3 Zrotation Yrotation Xrotation
							End Site
							{
								OFFSET 4.083176 0.000000 0.000000 
							}
						}
					}
				}
			}
			JOINT rCollar
			{
				OFFSET -3.470700 6.669187 -0.816635 
				CHANNELS 3 Yrotation Zrotation Xrotation
				JOINT rShldr
				{
					OFFSET -3.198488 0.000000 0.000000 
					CHANNELS 3 Zrotation Yrotation Xrotation
					JOINT rForeArm
					{
						OFFSET -10.139888 0.000000 0.000000 
						CHANNELS 3 Yrotation Zrotation Xrotation
						JOINT rHand
						{
							OFFSET -8.370511 0.000000 0.000000 
							CHANNELS 3 Zrotation Yrotation Xrotation
							End Site
							{
								OFFSET -4.083176 0.000000 0.000000 
							}
						}
					}
				}
			}
		}
	}
	JOINT lThigh
	{
		OFFSET 5.308129 -1.633274 1.361059 
		CHANNELS 3 Xrotation Zrotation Yrotation
		JOINT lShin
		{
			OFFSET -2.041588 -20.007561 0.000000 
			CHANNELS 3 Xrotation Zrotation Yrotation
			JOINT lFoot
			{
				OFFSET 0.000000 -19.190928 -1.224953 
				CHANNELS 3 Xrotation Yrotation Zrotation
				End Site
				{
					OFFSET 0.000000 -2.449906 4.627600 
				}
			}
		}
	}
	JOINT rThigh
	{
		OFFSET -5.308129 -1.633274 1.361059 
		CHANNELS 3 Xrotation Zrotation Yrotation
		JOINT rShin
		{
			OFFSET 2.041588 -20.007561 0.000000 
			CHANNELS 3 Xrotation Zrotation Yrotation
			JOINT rFoot
			{
				OFFSET 0.000000 -19.190928 -1.224953 
				CHANNELS 3 Xrotation Yrotation Zrotation
				End Site
				{
					OFFSET 0.000000 -2.449906 4.627600 
				}
			}
		}
	}
}
MOTION
Frames: 18
Frame Time: 0.033333
-0.834912 53.026398 -0.444544 0.000000 1.748047 -167.695313 11.162109 -3.750000 3.339205 -3.906250 3.574219 3.603516 51.064453 8.115234 2.472081 -40.947266 17.519533 -43.463856 16.376953 29.999998 -5.361329 -114.462891 9.609375 28.417969 -47.236332 -1.962891 -1.865235 24.492188 59.814453 24.656878 -16.523436 -30.000000 -5.073240 99.003906 -28.496092 -9.560546 124.140625 -1.777344 -2.978212 -52.148441 -26.679689 40.820313 -1.301794 21.157190 32.492584 11.577900 -4.732296 -1.165439 9.737931 6.298534 -17.200588 9.735888 2.919161 -23.585646 -0.347999 5.357910 -0.164819 2.166396 -11.097413 2.576874 
-0.845387 53.042156 -0.438026 -0.195313 1.748047 -167.880859 11.162109 -3.750000 3.339205 -4.091797 3.417969 3.555270 51.064453 8.115234 2.472081 -41.132813 17.539064 -43.515625 16.376953 29.999998 -5.361329 -114.121094 9.755859 28.144531 -47.412109 -2.060547 -1.904297 25.224609 60.039063 25.644529 -16.816406 -30.000000 -5.229492 97.451172 -28.134764 -9.369838 125.019524 -1.816406 -2.802734 -51.640625 -27.158203 40.468746 -1.301794 21.157188 32.492584 11.577900 -4.732295 -1.165439 9.720626 6.292360 -17.405359 9.735890 2.919159 -23.585646 -0.347996 5.357913 -0.164819 2.132905 -10.787000 2.354131 
-0.873867 53.042156 -0.438856 -0.195313 1.748047 -167.880859 10.986328 -3.740234 3.349610 -4.091797 3.242188 3.506412 51.064453 8.115234 2.472081 -41.132813 17.539064 -43.339848 16.171877 30.000000 -5.307618 -114.130859 9.960938 27.968750 -47.412109 -2.060547 -1.904297 25.234377 60.253906 25.858089 -16.874998 -30.000000 -5.307616 95.712891 -27.744139 -9.306641 125.898430 -1.855469 -2.949219 -51.591797 -27.744139 40.444679 -1.301797 21.157188 32.492584 11.577900 -4.732292 -1.165439 9.703793 6.330018 -17.608124 9.735888 2.919161 -23.585646 -0.347996 5.357913 -0.164819 2.363250 -10.886346 2.337224 
-0.909140 53.050030 -0.440352 -0.195313 1.748047 -168.056641 10.986328 -3.740234 3.349610 -3.740235 2.900391 3.417969 51.064453 8.115234 2.472081 -41.523438 17.421877 -43.281254 16.425779 29.999998 -5.429688 -114.091797 9.843750 28.009483 -47.412109 -2.060547 -1.904297 25.351563 60.419922 25.751953 -17.109377 -30.000000 -5.410157 94.560547 -27.421875 -9.535748 126.777344 -1.884766 -2.773438 -51.435551 -27.910156 40.556637 -1.495863 21.120806 32.276142 11.577903 -4.732287 -1.165439 9.564028 6.533828 -17.470318 9.735889 2.919159 -23.585646 -0.347997 5.357911 -0.164819 2.330809 -10.731642 2.411366 
-0.941551 53.050030 -0.440519 -0.195313 1.748047 -168.056641 10.986328 -3.574219 3.388672 -3.564453 2.724609 3.389136 51.064453 8.115234 2.472081 -41.708984 17.441408 -43.151371 16.474609 30.000000 -5.498046 -114.091797 9.453125 27.999651 -47.412109 -2.060547 -1.904297 24.775389 60.615238 25.585936 -17.441406 -30.000000 -5.668943 93.261719 -26.914063 -9.765625 127.646484 -1.923828 -2.753906 -51.542969 -27.949217 40.366516 -1.507246 21.135668 32.108322 11.577906 -4.732276 -1.165438 9.681869 6.187408 -17.434559 9.568043 3.006374 -23.427660 -0.358451 5.382964 -0.341800 2.303608 -10.649238 2.230472 
-0.984627 53.057903 -0.439138 -0.195313 1.914062 -168.056641 10.986328 -3.515625 3.222656 -3.388672 2.558594 3.516061 51.064453 8.115234 2.472081 -42.099606 17.314453 -42.985374 16.679688 30.000000 -5.556642 -114.082031 9.062500 27.978516 -47.412109 -2.060547 -1.904297 24.775389 60.615238 25.585936 -17.500000 -30.000000 -5.737304 92.099609 -26.777346 -9.975102 128.525391 -1.953125 -2.734042 -51.582035 -28.056641 40.009766 -1.507250 21.135668 32.108322 11.577905 -4.732277 -1.165438 9.778850 6.597134 -17.646233 9.563857 2.808829 -23.626705 -0.347507 5.374320 -0.321285 2.310124 -10.317157 2.402860 
-1.012988 53.050030 -0.436029 -0.361328 1.914063 -168.251953 10.986328 -3.515625 3.222656 -3.222656 2.382812 3.476968 51.064453 8.115234 2.472081 -42.304688 17.158205 -42.887749 16.679688 30.000000 -5.556642 -113.906242 8.847656 28.028847 -47.412109 -2.060547 -1.904297 25.175779 60.468750 25.664064 -17.558592 -30.000000 -5.815429 91.503906 -26.855469 -10.844256 129.580078 -2.021484 -2.841453 -51.728516 -27.773438 39.365234 -1.507249 21.135668 32.108322 11.577906 -4.732277 -1.165438 9.484783 6.825325 -17.511211 9.563854 2.808834 -23.626705 -0.347493 5.374118 -0.331039 2.477815 -10.438756 2.352090 
-1.022912 53.065788 -0.407899 -0.361328 1.914063 -168.251953 11.152344 -3.339844 3.241618 -3.222656 2.382812 3.476968 51.064453 8.115234 2.472081 -42.324219 16.982420 -42.734375 16.640625 30.000000 -5.493165 -113.886719 8.837891 28.429237 -47.236332 -1.962891 -1.865235 25.185547 60.449223 25.467480 -17.626955 -30.000000 -5.908203 91.044922 -27.343750 -11.523437 130.634766 -2.031250 -2.538716 -52.099606 -27.314453 38.403725 -1.507250 21.135666 32.108322 11.762972 -4.741792 -1.210264 9.749575 6.567873 -17.644062 9.563855 2.808831 -23.626705 -0.347493 5.374121 -0.331039 2.473631 -10.270215 2.049379 
-1.017867 53.050030 -0.376845 -0.361328 1.914063 -168.251953 11.328125 -3.339844 3.232422 -3.388672 2.558594 3.516061 51.064453 8.115234 2.472081 -42.548828 16.650393 -42.819466 16.689455 30.000000 -5.639649 -113.896484 9.033203 28.242188 -47.236328 -2.070312 -1.894531 25.234377 60.253906 25.858089 -17.568359 -30.000000 -5.732422 90.927734 -28.183592 -12.783202 132.041016 -2.080078 -2.666016 -52.705078 -26.376955 37.949223 -1.653089 21.244886 32.085461 11.762972 -4.741795 -1.210264 9.519850 6.520997 -17.860050 9.356920 2.729544 -23.458590 -0.356867 5.349719 -0.536263 2.365104 -10.367010 2.213584 
-1.008533 53.057903 -0.358480 -0.361328 1.914063 -168.076172 11.503906 -3.330078 3.222089 -3.564453 2.558594 3.515625 51.064453 8.115234 2.472081 -42.587891 16.318357 -42.858582 16.894531 29.999998 -5.693360 -113.896484 9.033203 28.242188 -47.236328 -2.070312 -1.894531 25.400389 60.214844 25.908199 -17.626955 -30.000000 -5.810547 91.054688 -28.710939 -13.710937 132.744141 -2.099609 -2.822266 -53.427734 -25.312498 36.988014 -1.664097 21.057219 32.071865 11.762972 -4.741793 -1.210264 9.529379 6.497479 -17.683462 9.356918 2.729548 -23.458588 -0.356868 5.349720 -0.536263 2.528092 -10.505951 2.176256 
-1.015515 53.026398 -0.373246 -0.537109 1.923831 -167.890305 11.503906 -3.164063 3.261180 -3.564453 2.724609 3.564917 51.064453 8.115234 2.472081 -42.607422 16.142578 -42.880863 16.845703 30.000000 -5.629883 -113.876953 8.828126 28.624548 -47.060547 -1.962891 -1.864900 25.195313 60.205078 25.086599 -17.695313 -30.000000 -5.898438 92.031250 -28.974611 -14.633639 133.095703 -2.109375 -2.490235 -54.375000 -23.964844 35.787048 -1.837192 21.023426 32.035843 11.758319 -4.753519 -1.211271 9.726469 6.515670 -17.698450 9.356918 2.729548 -23.458588 -0.356867 5.349718 -0.536263 2.158950 -10.258636 2.246138 
-1.028520 53.018517 -0.454857 -0.537109 1.923831 -167.714523 11.328126 -3.164063 3.261180 -3.037110 2.880859 3.632781 51.064453 8.115234 2.472081 -42.841797 15.810546 -42.802734 16.953125 30.000000 -5.854493 -114.208984 8.593750 28.144529 -47.060547 -2.070313 -1.894178 25.400391 59.960941 25.526031 -17.949219 -30.000000 -5.913085 93.291016 -28.583982 -14.472655 132.919922 -2.109375 -2.490235 -55.478516 -22.177734 34.215065 -1.837196 21.023424 32.035843 11.758575 -4.753622 -1.201539 9.343730 6.417187 -17.512772 9.356919 2.729546 -23.458588 -0.356867 5.349719 -0.536263 2.003806 -10.696811 2.168150 
-1.040774 52.994888 -0.586586 -0.537109 1.923831 -167.538742 11.152344 -3.105469 3.104940 -2.333984 3.046875 3.897003 51.064453 8.115234 2.472081 -43.056637 15.488282 -42.956375 17.119141 30.000000 -5.849610 -114.375000 8.037109 28.281250 -46.884769 -2.080078 -1.884766 25.605469 59.697266 25.760386 -18.496094 -30.000000 -6.191407 95.810547 -27.656654 -14.228747 131.865234 -2.070312 -2.509765 -57.851559 -19.570314 33.004539 -1.837197 21.023426 32.035843 11.758319 -4.753521 -1.211271 9.635510 6.205887 -17.642591 9.356919 2.729546 -23.458588 -0.356866 5.349717 -0.536263 1.985499 -11.026308 2.379679 
-1.046986 52.979126 -0.699716 -0.722656 1.748047 -167.382507 10.976563 -3.173828 3.280710 -1.796875 3.212891 4.160156 51.064453 8.115234 2.472081 -43.105469 15.136719 -42.985729 17.119141 30.000000 -5.849610 -114.541016 7.470703 28.408203 -46.708984 -2.080078 -1.874645 25.517576 59.521477 25.654295 -18.847656 -30.000000 -6.538084 98.681641 -26.435547 -13.486328 129.228516 -2.001953 -2.841456 -60.117188 -15.986327 31.091059 -1.837192 21.023426 32.035843 11.758576 -4.753618 -1.201539 9.533563 6.334470 -17.566908 9.563857 2.808830 -23.626705 -0.347492 5.374119 -0.331039 1.647010 -11.028604 2.483694 
-1.029830 52.971249 -0.758439 -0.722656 1.748047 -167.206726 10.976564 -3.232422 3.446715 -1.796875 3.212891 4.160156 51.064453 8.115234 2.472081 -42.578125 14.902343 -43.007816 17.119141 30.000000 -5.849610 -114.716797 7.480468 28.554688 -46.533203 -2.080078 -1.865234 25.917967 59.365231 25.722656 -18.476563 -30.000000 -6.269532 102.060547 -24.570313 -11.699220 123.427734 -1.757813 -3.310547 -63.779297 -9.472656 27.410503 -1.859097 21.017277 31.865330 11.763507 -4.739697 -1.219825 9.596293 6.018448 -17.532396 9.571928 2.817530 -23.802132 -0.347480 5.374122 -0.331039 1.302797 -11.025934 2.632084 
-1.023584 52.963375 -0.796100 -0.722656 1.748047 -167.206726 10.976563 -3.115234 3.651813 -2.148437 3.378906 4.014247 51.064453 8.115234 2.472081 -42.060547 14.667970 -43.076168 17.421877 30.000000 -6.118163 -114.892578 7.695313 28.701172 -46.357418 -2.089844 -1.864879 25.966797 59.150387 25.888670 -18.115236 -30.000000 -6.005860 105.908203 -22.597656 -9.707031 115.888664 -1.123047 -2.988282 -67.861328 -3.144531 22.451174 -1.859097 21.017277 31.865330 11.763507 -4.739697 -1.219825 9.596293 6.018445 -17.532398 9.571928 2.817528 -23.802132 -0.347494 5.374318 -0.321285 1.119805 -11.461895 2.568374 
-1.007145 52.931866 -0.842471 -0.722656 1.748047 -167.206726 10.966796 -3.173828 3.818360 -2.314453 3.720703 4.102195 51.064453 8.115234 2.472081 -41.357426 14.414063 -43.291016 17.421877 30.000000 -6.118163 -115.068359 7.792969 29.394535 -46.357418 -1.992188 -2.011379 26.044922 59.062496 25.419920 -17.558592 -30.000000 -5.815429 108.486328 -20.644531 -6.748047 108.681641 -1.005859 -2.978344 -68.886719 -1.064453 21.767578 -1.859098 21.017277 31.865332 11.763507 -4.739698 -1.219825 9.436150 6.157494 -17.626802 9.578923 2.830919 -23.987520 -0.348383 5.374060 -0.331030 1.123511 -11.448869 2.564276 
-0.996912 52.931866 -0.914180 -0.898438 1.748047 -167.207031 10.791015 -3.232422 3.984375 -2.314453 4.052734 4.033894 51.064453 8.115234 2.472081 -41.044922 14.023438 -43.447266 17.373047 30.000000 -6.049805 -115.244141 7.802735 29.550779 -46.357418 -1.992188 -2.011379 26.044922 59.062496 25.419920 -17.441406 -30.000000 -5.668943 108.593750 -18.525391 -3.313648 102.187500 -0.546875 -3.134771 -65.566406 -5.566407 27.783205 -1.856141 21.044876 31.670395 11.942245 -4.742984 -1.195178 9.623188 6.071816 -17.476925 9.578922 2.830920 -23.987520 -0.348383 5.374058 -0.331030 0.946180 -11.155162 2.301217 
